<svg xmlns="http://www.w3.org/2000/svg" viewBox="0 0 980 980" fill="none" shape-rendering="auto"><metadata xmlns:rdf="http://www.w3.org/1999/02/22-rdf-syntax-ns#" xmlns:xsi="http://www.w3.org/2001/XMLSchema-instance" xmlns:dc="http://purl.org/dc/elements/1.1/" xmlns:dcterms="http://purl.org/dc/terms/"><rdf:RDF><rdf:Description><dc:title>Lorelei</dc:title><dc:creator>Lisa Wischofsky</dc:creator><dc:source xsi:type="dcterms:URI">https://www.figma.com/community/file/1198749693280469639</dc:source><dcterms:license xsi:type="dcterms:URI">https://creativecommons.org/publicdomain/zero/1.0/</dcterms:license><dc:rights>Remix of „Lorelei” (https://www.figma.com/community/file/1198749693280469639) by „Lisa Wischofsky”, licensed under „CC0 1.0” (https://creativecommons.org/publicdomain/zero/1.0/)</dc:rights></rdf:Description></rdf:RDF></metadata><mask id="viewboxMask"><rect width="980" height="980" rx="0" ry="0" x="0" y="0" fill="#fff" /></mask><g mask="url(#viewboxMask)"><g transform="translate(10 -60)"><path fill-rule="evenodd" clip-rule="evenodd" d="M427 120c21 3 42 9 58 23 11 8 23 20 27 34 1-10 0-20-2-30-2-8-7-13-13-19 1-3 5-2 7-1 12 6 20 18 24 30 3 10 3 20 0 29-3 13-11 22-21 31a391 391 0 0 1 212 79l25 25c10 14 18 29 20 46 2 18 2 37-4 55-2 7-5 14-10 19l-3-1c7 22 10 45 13 67a1185 1185 0 0 1 6 77c-1 22-4 45-10 67-4 12-10 24-17 35l-5 4-1-7-6-31c-4 9-10 18-17 26-5 6-11 10-18 14l-3 3-9 6c-16 9-33 16-50 21a569 569 0 0 1-207 15v-1h-8c-19-3-38-8-55-15l-5-2-6-3c-6 6-11 12-15 19s-6 16-7 24c0 9 2 18 5 26v1l1 1c0 1 1 3-1 3-5-2-10-8-13-13-6-8-9-19-8-29 2-16 10-30 22-41l-11-7v1l-1 14-2 3-1 1-14-13c-18-19-33-41-43-65l-6-10-3-4a296 296 0 0 1-11-298c-8-11-11-25-11-39a115 115 0 0 1 63-106c6-4 14-6 21-7l1-1h4l4-7 2-4c11-17 28-31 47-39 17-7 36-8 55-6Zm-6 15c21 2 42 9 58 23 8 6 14 14 18 23a89 89 0 0 0-36-25c-17-7-36-11-54-12a118 118 0 0 0-51 6c19-12 42-17 65-15Zm316 243-1-1c0 8 0 16-2 24l2 6v2c5 10 9 20 11 31 2-3 1-6 1-10v-3a171 171 0 0 0-11-49Z" fill="#1c1b1b"/><path d="M495 234c28 1 56 6 84 15a201 201 0 0 1 100 65c19 25 31 55 35 86a361 361 0 0 1 2 101l-5 34-4 20c-1 2-1 2-3 2-2-4-2-8-2-12-1-15 1-29 2-44 1-24 3-48 1-72l-6-45c-7-28-20-54-40-75-18-18-40-33-63-43-22-9-44-15-67-19-18-3-36-4-54-4a277 277 0 0 0-128 29c-13 9-25 20-35 32a276 276 0 0 0-55 139c-1 24 0 47 8 70l7 15 12 1 1 3c-3 2-7 2-11 3-10 2-20 6-29 12-7 5-14 11-18 19-5 10-3 22-1 33 5 19 17 37 33 49 11 9 25 14 39 16 10 2 20 0 30-1 5 4 8 12 11 17l18 27a136 136 0 0 0 66 50c22 9 45 14 68 19l41 8 17 5v4h-12a535 535 0 0 1-67-8 255 255 0 0 1-84-33c-11-7-21-16-29-27a214 214 0 0 1-16 123c-15 27-40 48-70 57-3 1-7 2-10 1-2 0-2-1-2-3 1-3 4-5 6-6 12-8 26-14 38-23 13-11 24-23 31-38 6-15 10-32 12-49 2-13 3-26 2-40l-4-38-18-36-19 4a88 88 0 0 1-75-38 93 93 0 0 1-20-58c0-9 3-18 8-25s12-13 19-17c5-4 12-6 18-8l-9-24c-5-22-5-45-2-67a292 292 0 0 1 63-149c9-10 18-19 29-26 7-4 14-5 20-9 43-19 90-25 137-22Z" fill="#000"/><path d="M475 243a276 276 0 0 1 121 23c23 10 45 25 63 43 20 21 33 47 40 75l6 45c2 24 0 48-1 72-1 15-3 29-2 44 0 4 0 8 2 12l-1 20c-2 5-2 10-2 16-2 24-2 49-6 74-1 12-3 25-8 36-3 9-8 17-15 24-12 13-27 24-43 33-19 11-39 16-58 24-5 2-10 4-13 8 8 1 15 0 23-2-5 12-6 24-6 36 0 5-1 11 1 16 3 5 8 9 13 12l35 13c22 8 43 18 65 27 2 4 5 7 6 12 6 11 7 23 3 35-5 13-15 24-27 31-16 11-36 19-55 24a494 494 0 0 1-235-7c-20-7-40-14-58-24-14-8-29-18-40-31-6-8-11-19-12-29a122 122 0 0 0 86-107c4-24 4-49 0-73 8 11 18 20 29 27l27 14a331 331 0 0 0 124 27h12v-4l-17-5-41-8c-23-5-46-10-68-19-13-6-27-13-39-21-10-9-19-18-27-29l-18-27c-3-5-6-13-11-17-10 1-20 3-30 1-14-2-28-7-39-16a94 94 0 0 1-33-49c-2-11-4-23 1-33 4-8 11-14 18-19 9-6 19-10 29-12 4-1 8-1 11-3l-1-3-12-1-7-15c-8-23-9-46-7-70a276 276 0 0 1 54-139c10-12 22-23 35-32a277 277 0 0 1 128-30Z" fill="#d08b5b"/><path d="M260 571c4 0 7 0 11 2 5 1 11 4 14 8 2 3 2 7 0 10-5 6-12 10-16 16 6 4 14 6 21 9 4 1 8 3 11 6l1 3-8-2-24-7c-4-1-8-3-9-7-1-3 1-7 3-10l15-13c-4-7-15-8-19-15ZM703 577l2 3 2 16a483 483 0 0 1-2 89c-2 11-5 23-10 33a198 198 0 0 1-106 71c-1 14-3 31-2 47l5 5c8 6 18 9 27 12a451 451 0 0 1 68 28c7 4 13 9 18 15-5 1-10-1-16-2-22-9-43-19-65-27l-35-13c-5-3-10-7-13-12-2-5-1-11-1-16 0-12 1-24 6-36-8 2-15 3-23 2 3-4 8-6 13-8 19-8 39-13 58-24 16-9 31-20 43-33 7-7 12-15 15-24 5-11 7-24 8-36 4-25 4-50 6-74 0-6 0-11 2-16Z" fill="#000"/><path d="M681 473c6 2 11 6 14 12 2 2 3 6 2 9-2 4-7 6-11 5-5-1-6-6-11-9-6-4-12-4-19-2 3 2 6 4 7 8 4 7 4 17 2 25-2 6-5 12-11 15-6 2-13 0-16-5-5-6-6-15-5-23l-11 20c-1 3-1 6-4 8-2-7 0-13 2-19 6-17 19-31 34-40 8-4 18-6 27-4ZM445 484c31-4 63 14 76 42 2 2 3 6 1 9-3-1-5-4-7-7-5-8-11-14-19-20 1 5 2 10 1 16-1 8-5 17-12 21-6 4-13 3-18 0-7-5-10-12-11-20-1-9 1-20 7-28-19 2-37 8-52 20l-7 4c-4 1-7-1-8-4-2-3-1-8 2-10 13-13 29-21 47-23Z" fill="#000000"/><path d="M533 358c6 2 9 8 10 14 0 8-3 16-7 22-3 3-7 4-10 1-4-3-2-10-2-15l-13 10c-6 4-13 7-20 9-9 4-19 5-30 8l-25 8c-8 3-15 8-22 12l-25 17c-5 3-8 7-11 12-2-4-1-8 1-11a401 401 0 0 1 35-29c16-13 36-21 55-28l28-11c8-4 14-11 21-16 5-2 10-4 15-3ZM626 376l6 7c17 7 33 7 49 16 4 2 7 6 9 10s1 8-2 12l-16-6c-12-6-24-7-36-11-7-3-14-4-19-10-4 8-4 17-8 26-1 1-1 4-4 3l-1-8 2-11c1-8 4-16 7-23 2-6 8-8 13-5Z" fill="#000000"/><path d="m591 528 2 2 7 22c4 8 10 15 15 23 4 6 6 13 5 20-1 6-4 12-9 16-7 7-16 12-25 16-5 3-11 4-17 2l5-4c11-9 25-14 36-24 2-2 4-6 4-9-1-7-5-11-8-16-5-9-10-16-13-25-2-7-4-16-2-23Z" fill="#000000"/><path d="M599 665c5 0 10 3 13 7 3 6 4 13 5 20 1 11-1 23-6 33-5 9-13 13-22 15-11 3-23 3-34 3-4 0-9-1-13-3 7-3 13-3 20-4l21-3c6-1 14-4 18-9s6-12 7-19l-4 6c-4 3-9 3-14 4l-26 4c-7 1-15 3-23 0l-11 23c-3 1-3-2-3-4 0-7 3-14 6-20 7-17 21-32 36-42 9-6 19-11 30-11Z" fill="#000000"/><path d="M492 216c35 0 70 7 103 17 23 6 45 14 66 24 23 12 45 25 63 44 15 13 27 28 35 46 3 8 5 17 6 26 1 13 0 26-2 39-2 10-6 22-13 30l-2-6c0-20-5-40-12-59 1 19-3 40-15 55-4 4-8 5-12 7s-9 2-13 2c-7-1-15-4-22-7-2-2-5-3-6-6-4-13-5-27-9-40l-6-17c-2 10-4 19-8 28-3 11-8 21-15 30l-8 7-3-14-4-17c-5-21-14-42-26-61v29c-2 16-3 31-10 45-3 7-4 14-10 18-8 4-18 5-27 5-13 0-28 2-41-1-6-2-8-7-11-12l-14-31-11-20c-2 22-2 43-1 64-1 2 0 4-2 5-1 2-3 1-5 0-9-4-16-11-23-18-9-12-19-24-25-37l2 17c3 12 7 24 12 35l2 8-5-2c-7-5-12-12-17-19-7-12-11-27-12-41-5 19-7 39-8 59l-2 10c-1 3-3 4-6 5l-33 5h-11a670 670 0 0 0 13 152l15 61c1 3 0 5-2 7-15-8-26-23-36-38v63l-3 6a245 245 0 0 1-64-94l-6-16a397 397 0 0 1-27-151c1-40 9-80 26-116a217 217 0 0 1 76-91l31-17c11-4 22-9 34-10 10-1 21-3 31 0 4 1 8-1 12-2 20-4 41-6 61-6Z" fill="#1c1b1b"/></g><g transform="translate(10 -60)"></g></g></svg>