<svg xmlns="http://www.w3.org/2000/svg" viewBox="0 0 64 64">
  <!-- Realistic Matka (Clay Water Pot) - Terracotta brown with texture -->
  <defs>
    <radialGradient id="clayGrad" cx="50%" cy="40%">
      <stop offset="0%" style="stop-color:#D2691E;stop-opacity:1" />
      <stop offset="60%" style="stop-color:#A0522D;stop-opacity:1" />
      <stop offset="100%" style="stop-color:#8B4513;stop-opacity:1" />
    </radialGradient>
  </defs>
  <!-- Shadow -->
  <ellipse cx="32" cy="58" rx="16" ry="4" fill="#000" opacity="0.25"/>
  <!-- Main pot body (round matka shape) -->
  <ellipse cx="32" cy="42" rx="16" ry="18" fill="url(#clayGrad)"/>
  <!-- Pot rim/mouth -->
  <ellipse cx="32" cy="22" rx="9" ry="3.5" fill="#CD853F"/>
  <path d="M23 22 Q23 25 32 25 Q41 25 41 22" fill="#A0522D"/>
  <!-- Neck -->
  <path d="M26 22 Q24 30 24 35 M38 22 Q40 30 40 35" stroke="#8B4513" stroke-width="0.8" fill="none" opacity="0.6"/>
  <!-- Clay texture/roughness -->
  <circle cx="25" cy="38" r="1.5" fill="#8B4513" opacity="0.3"/>
  <circle cx="38" cy="45" r="1.2" fill="#8B4513" opacity="0.3"/>
  <circle cx="30" cy="50" r="1" fill="#654321" opacity="0.25"/>
  <circle cx="35" cy="35" r="0.8" fill="#654321" opacity="0.25"/>
  <!-- Cracks (authentic worn look) -->
  <path d="M28 32 Q29 38 28 44" stroke="#654321" stroke-width="1.2" fill="none" opacity="0.5"/>
  <path d="M36 36 Q37 40 36 46" stroke="#654321" stroke-width="0.9" fill="none" opacity="0.4"/>
  <!-- Highlight (wet clay shine) -->
  <ellipse cx="28" cy="35" rx="3" ry="6" fill="#F4A460" opacity="0.3"/>
  <!-- Base -->
  <ellipse cx="32" cy="57" rx="13" ry="3" fill="#8B4513"/>
</svg>
