<svg xmlns="http://www.w3.org/2000/svg" viewBox="0 0 64 64">
  <!-- Authentic 3-Tier Mumbai Dabba (Stainless Steel Tiffin) -->
  <defs>
    <radialGradient id="steelGrad" cx="40%" cy="30%">
      <stop offset="0%" style="stop-color:#E8E8E8;stop-opacity:1" />
      <stop offset="50%" style="stop-color:#C0C0C0;stop-opacity:1" />
      <stop offset="100%" style="stop-color:#A8A8A8;stop-opacity:1" />
    </radialGradient>
  </defs>
  <!-- Shadow -->
  <ellipse cx="32" cy="58" rx="15" ry="3" fill="#000" opacity="0.25"/>
  <!-- Bottom tier (largest) -->
  <ellipse cx="32" cy="48" rx="14" ry="4" fill="url(#steelGrad)" stroke="#909090" stroke-width="1.2"/>
  <rect x="18" y="44" width="28" height="10" fill="url(#steelGrad)" stroke="#909090" stroke-width="1"/>
  <ellipse cx="32" cy="44" rx="14" ry="4" fill="#D3D3D3" stroke="#909090" stroke-width="1.2"/>
  <!-- Rim detail -->
  <ellipse cx="32" cy="47" rx="13" ry="2" fill="none" stroke="#A0A0A0" stroke-width="0.5"/>

  <!-- Middle tier -->
  <ellipse cx="32" cy="36" rx="13" ry="3.5" fill="url(#steelGrad)" stroke="#909090" stroke-width="1.2"/>
  <rect x="19" y="32" width="26" height="9" fill="url(#steelGrad)" stroke="#909090" stroke-width="1"/>
  <ellipse cx="32" cy="32" rx="13" ry="3.5" fill="#D8D8D8" stroke="#909090" stroke-width="1.2"/>
  <ellipse cx="32" cy="35" rx="12" ry="2" fill="none" stroke="#A0A0A0" stroke-width="0.5"/>

  <!-- Top tier (smallest) -->
  <ellipse cx="32" cy="24" rx="12" ry="3" fill="url(#steelGrad)" stroke="#909090" stroke-width="1.2"/>
  <rect x="20" y="21" width="24" height="8" fill="url(#steelGrad)" stroke="#909090" stroke-width="1"/>
  <ellipse cx="32" cy="21" rx="12" ry="3" fill="#DCDCDC" stroke="#909090" stroke-width="1.2"/>
  <ellipse cx="32" cy="23" rx="11" ry="1.8" fill="none" stroke="#A0A0A0" stroke-width="0.5"/>

  <!-- Central locking clasp -->
  <rect x="30" y="26" width="4" height="22" fill="#808080" stroke="#606060" stroke-width="0.8"/>
  <rect x="29" y="30" width="6" height="2" fill="#909090" rx="0.5"/>
  <rect x="29" y="40" width="6" height="2" fill="#909090" rx="0.5"/>

  <!-- Wire handle (curved) -->
  <path d="M20 18 Q32 8 44 18" stroke="#808080" stroke-width="2.5" fill="none" stroke-linecap="round"/>
  <path d="M20 18 Q32 9 44 18" stroke="#B0B0B0" stroke-width="1.5" fill="none" stroke-linecap="round"/>

  <!-- Handle connectors -->
  <circle cx="20" cy="19" r="1.5" fill="#707070"/>
  <circle cx="44" cy="19" r="1.5" fill="#707070"/>

  <!-- Wear marks and scratches -->
  <line x1="24" y1="34" x2="26" y2="36" stroke="#909090" stroke-width="0.5" opacity="0.5"/>
  <line x1="38" y1="46" x2="40" y2="48" stroke="#909090" stroke-width="0.5" opacity="0.5"/>
  <circle cx="26" cy="40" r="1" fill="#808080" opacity="0.3"/>
  <circle cx="37" cy="28" r="0.8" fill="#808080" opacity="0.3"/>

  <!-- Metallic shine highlights -->
  <ellipse cx="26" cy="24" rx="3" ry="4" fill="#FFF" opacity="0.4"/>
  <ellipse cx="38" cy="35" rx="2" ry="3" fill="#FFF" opacity="0.3"/>
</svg>
