<svg xmlns="http://www.w3.org/2000/svg" viewBox="0 0 64 64">
  <!-- Torn, dirty notebook -->
  <rect x="18" y="15" width="28" height="38" fill="#FFFACD" stroke="#D3D3D3" stroke-width="1.5"/>
  <!-- Torn corner -->
  <path d="M18 15 L24 15 L18 21 Z" fill="#F5F5DC"/>
  <!-- Spiral binding holes -->
  <circle cx="21" cy="20" r="1" fill="#808080"/>
  <circle cx="21" cy="27" r="1" fill="#808080"/>
  <circle cx="21" cy="34" r="1" fill="#808080"/>
  <circle cx="21" cy="41" r="1" fill="#808080"/>
  <circle cx="21" cy="48" r="1" fill="#808080"/>
  <!-- Lines (ruled) -->
  <line x1="24" y1="25" x2="43" y2="25" stroke="#ADD8E6" stroke-width="0.5" opacity="0.5"/>
  <line x1="24" y1="30" x2="43" y2="30" stroke="#ADD8E6" stroke-width="0.5" opacity="0.5"/>
  <line x1="24" y1="35" x2="43" y2="35" stroke="#ADD8E6" stroke-width="0.5" opacity="0.5"/>
  <line x1="24" y1="40" x2="43" y2="40" stroke="#ADD8E6" stroke-width="0.5" opacity="0.5"/>
  <line x1="24" y1="45" x2="43" y2="45" stroke="#ADD8E6" stroke-width="0.5" opacity="0.5"/>
  <!-- Stains and dirt -->
  <circle cx="35" cy="32" r="3" fill="#8B4513" opacity="0.15"/>
  <circle cx="28" cy="48" r="2" fill="#696969" opacity="0.1"/>
  <!-- Crease -->
  <line x1="32" y1="15" x2="32" y2="53" stroke="#D3D3D3" stroke-width="0.8" opacity="0.4"/>
  <!-- Dog-eared page -->
  <path d="M46 15 L40 15 L46 21 Z" fill="#F0E68C" stroke="#D3D3D3" stroke-width="0.5"/>
</svg>
